<?xml version="1.0" encoding="UTF-8" standalone="no"?>
<!-- Created with Inkscape (http://www.inkscape.org/) -->

<svg
   width="98.909378mm"
   height="50.685165mm"
   viewBox="0 0 98.909378 50.685165"
   version="1.1"
   id="svg1"
   inkscape:version="1.3.2 (091e20ef0f, 2023-11-25)"
   sodipodi:docname="Void Linux.svg"
   inkscape:export-filename="Void Linux.png"
   inkscape:export-xdpi="512"
   inkscape:export-ydpi="512"
   xmlns:inkscape="http://www.inkscape.org/namespaces/inkscape"
   xmlns:sodipodi="http://sodipodi.sourceforge.net/DTD/sodipodi-0.dtd"
   xmlns="http://www.w3.org/2000/svg"
   xmlns:svg="http://www.w3.org/2000/svg">
  <sodipodi:namedview
     id="namedview1"
     pagecolor="#ffffff"
     bordercolor="#000000"
     borderopacity="0.25"
     inkscape:showpageshadow="2"
     inkscape:pageopacity="0.0"
     inkscape:pagecheckerboard="0"
     inkscape:deskcolor="#d1d1d1"
     inkscape:document-units="mm"
     inkscape:zoom="2.0586053"
     inkscape:cx="199.64973"
     inkscape:cy="98.36757"
     inkscape:window-width="1441"
     inkscape:window-height="1014"
     inkscape:window-x="277"
     inkscape:window-y="90"
     inkscape:window-maximized="0"
     inkscape:current-layer="layer3" />
  <defs
     id="defs1" />
  <g
     inkscape:label="Layer 1"
     inkscape:groupmode="layer"
     id="layer1"
     style="display:inline"
     transform="translate(-53.673828,-40.202023)">
    <path
       d="m 69.459478,57.298486 c -3.20584,0.0068 -6.3287,1.019622 -8.92831,2.895659 l 3.47806,3.478061 c 1.64097,-1.003809 3.5266,-1.536539 5.45025,-1.53981 5.78725,-1.1e-5 10.47875,4.691487 10.47874,10.478741 -0.004,1.922961 -0.53832,3.807569 -1.54262,5.447442 l 3.48466,3.484655 c 1.87544,-2.601117 2.88696,-5.725375 2.89187,-8.932097 0,-8.456943 -6.85571,-15.312651 -15.31265,-15.312651 z"
       fill="#abc2ab"
       id="path1"
       style="stroke:#ffffff;stroke-width:0.946;stroke-dasharray:none;stroke-opacity:1" />
    <path
       d="m 78.387788,85.028128 -3.47806,-3.478058 c -1.64098,1.003808 -3.52661,1.536539 -5.45025,1.539809 -5.78725,1.1e-5 -10.47875,-4.691488 -10.47874,-10.478742 0.004,-1.92296 0.53832,-3.807569 1.54262,-5.447441 l -3.48466,-3.484653 c -1.87544,2.601114 -2.88696,5.725373 -2.89187,8.932094 0,8.456943 6.8557,15.312654 15.31265,15.312654 3.20584,-0.0068 6.3287,-1.019625 8.92831,-2.895663 z"
       fill="#478061"
       id="path2"
       style="stroke:#ffffff;stroke-width:0.946;stroke-dasharray:none;stroke-opacity:1" />
    <circle
       fill="#abc2ab"
       cx="69.457024"
       cy="72.611137"
       id="circle2"
       style="stroke:#ffffff;stroke-width:0.946;stroke-dasharray:none;stroke-opacity:1"
       r="4.8750482" />
  </g>
  <g
     inkscape:groupmode="layer"
     id="layer2"
     inkscape:label="Layer 2"
     transform="translate(-53.673828,-40.202023)">
    <path
       style="font-size:25.4px;font-family:'Wonderful Fonty Cure!';-inkscape-font-specification:'Wonderful Fonty Cure!';fill:#abc2ab;stroke-width:0.264583"
       d="m 64.228752,76.521895 q -1.066602,-0.719336 -1.661914,-1.463477 -0.570508,-0.768945 -1.21543,-2.083593 -0.173632,-0.297657 -0.297656,-0.595313 -0.124023,-0.322461 -0.248047,-0.545703 -0.09922,-0.223242 -0.198437,-0.545703 -0.09922,-0.347266 -0.173633,-0.496094 -0.04961,-0.148828 -0.148828,-0.545703 l -0.124024,-0.496094 q -0.0248,-0.09922 -0.124023,-0.545703 -0.09922,-0.471289 -0.124024,-0.520898 0,-0.07441 -0.09922,-0.620117 -0.09922,-0.570508 -0.124024,-0.644922 -0.0248,-0.173633 -0.173633,-0.892969 -0.148828,-0.719336 -0.223242,-1.141016 -0.07441,-0.421679 -0.173633,-1.141015 -0.09922,-0.744141 -0.07441,-1.21543 0.04961,-0.471289 0.124024,-0.992187 0.09922,-0.545704 0.37207,-0.892969 0.272852,-0.347266 0.694531,-0.520899 1.091407,-0.471289 1.736329,-0.248046 0.644921,0.223242 1.141015,1.364257 0.446484,1.041797 1.141016,3.745508 0.719336,2.678906 1.016992,3.373438 0.79375,1.934765 1.438672,2.207617 0.248047,0.09922 0.37207,-0.173633 0.272852,-0.644922 1.513086,-5.010547 1.240234,-4.39043 1.413867,-4.911328 0.272852,-0.694531 1.091406,-0.768945 0.84336,-0.07441 1.661914,0.297656 0.84336,0.347266 1.190625,0.868164 0.322461,0.496094 0.372071,1.016992 0.07441,0.496094 0,1.041797 -0.198438,1.686719 -0.446485,2.827734 -0.248047,1.116211 -0.79375,2.703711 -0.07441,0.248047 -0.37207,1.165821 -0.272852,0.892968 -0.471289,1.463476 -0.173633,0.570508 -0.545703,1.463477 -0.37207,0.892968 -0.719336,1.488281 -0.322461,0.570508 -0.818555,1.116211 -0.471289,0.545703 -0.967383,0.79375 -0.74414,0.37207 -1.5875,0.545703 -0.843359,0.173633 -1.785937,0.07441 -0.917773,-0.07441 -1.5875,-0.545703 z M 81.36879,74.239864 q 0.520899,0.07441 1.21543,-0.272852 0.694531,-0.347266 1.240234,-0.942578 0.545703,-0.595313 0.818555,-1.289844 0.272852,-0.719336 -0.07441,-1.314648 -0.37207,-0.669727 -0.992188,-0.818555 -0.595312,-0.173633 -1.11621,0.04961 -0.520899,0.198437 -0.892969,0.595312 -0.595313,-0.570508 -0.84336,-0.644922 -0.07441,-0.02481 -0.272851,-0.07441 -0.173633,-0.04961 -0.223242,-0.04961 -0.04961,-0.02481 -0.173633,-0.02481 -0.124024,-0.02481 -0.198438,0 -0.07441,0.02481 -0.198437,0.07441 -0.124024,0.02481 -0.272852,0.09922 -0.74414,0.42168 -0.818554,1.190625 -0.04961,0.74414 0.396875,1.463476 0.446484,0.719336 1.116211,1.289844 0.694531,0.570508 1.289843,0.669727 z m 6.077149,-0.347266 q -0.446485,1.21543 -1.165821,1.934766 -0.694531,0.694531 -1.885156,1.16582 -1.389062,0.471289 -2.877344,0.198437 -1.463476,-0.248046 -2.75332,-1.016992 -1.438672,-0.868164 -2.133203,-2.108398 -0.669726,-1.240235 -0.595312,-2.480469 0.09922,-1.240234 0.644921,-2.406055 0.570508,-1.16582 1.488282,-1.984375 2.182812,-1.934765 6.126757,-0.79375 1.240235,0.372071 2.058789,1.240235 0.84336,0.843359 1.165821,1.934765 0.347265,1.066602 0.322461,2.207618 -0.02481,1.141015 -0.396875,2.108398 z m 4.067968,-12.65039 q 0.892969,-0.02481 1.562695,0.421679 0.669727,0.42168 0.79375,1.21543 0.09922,0.620117 -0.496093,1.016992 -0.595313,0.37207 -1.364258,0.37207 -0.768945,0.02481 -1.364258,-0.297656 -0.570508,-0.322461 -0.669726,-0.942578 -0.09922,-0.669727 0.37207,-1.21543 0.471289,-0.545703 1.16582,-0.570507 z m 2.778125,12.923242 q 0.09922,2.827734 -1.413867,3.050976 -2.902148,0.42168 -3.050977,-2.38125 -0.07441,-1.513086 -0.04961,-3.844726 0.02481,-2.331641 -0.02481,-3.894336 -0.04961,-1.091406 1.091407,-1.537891 1.16582,-0.446484 2.182812,0.173633 0.967383,0.620117 0.967383,1.95957 0,1.438672 0.124023,3.720703 0.148828,2.257227 0.173633,2.753321 z m 6.920508,-3.919141 q -0.91777,0.496094 -1.11621,1.240234 -0.248047,0.868164 0.24805,1.513086 0.49609,0.620117 1.53789,0.694532 1.11621,0.124023 1.68672,-0.42168 0.59531,-0.545703 0.39687,-1.736328 -0.19844,-1.016992 -1.0418,-1.389063 -0.81855,-0.37207 -1.71152,0.09922 z m 2.40606,-3.125391 q -0.12403,-1.240234 -0.17364,-2.182812 0,-0.173633 -0.0744,-0.719336 -0.0496,-0.545703 -0.0496,-0.892969 0.0248,-0.347265 0.0744,-0.79375 0.0496,-0.471289 0.27286,-0.79375 0.22324,-0.322461 0.62011,-0.496093 0.91778,-0.42168 2.1084,-0.07441 0.5209,0.09922 0.71934,0.818554 0.64492,3.026172 0.94257,6.821289 0.22325,2.356445 -0.0248,4.39043 -0.0248,0.223242 -0.0992,0.868164 -0.0744,0.620117 -0.12402,0.868164 -0.0496,0.248047 -0.24805,0.669726 -0.19844,0.42168 -0.5209,0.768946 -1.33945,1.463476 -3.47265,0.248047 -0.74414,0.37207 -1.33946,0.545703 -0.59531,0.198437 -1.41386,0.148828 -0.79375,-0.02481 -1.562699,-0.446485 -1.21543,-0.694531 -1.909961,-1.413867 -0.694531,-0.719336 -1.041797,-1.934765 -0.446484,-1.711524 -0.02481,-3.026172 0.446485,-1.314649 1.463477,-2.133203 1.016992,-0.84336 2.331645,-1.190625 1.31464,-0.372071 2.62929,-0.198438 0.57051,0.07441 0.91778,0.148828 z"
       id="text1"
       transform="rotate(-9.5976654)"
       aria-label="Void&#10;" />
    <path
       d="m 72.30582,91.06963 q -0.272852,-3.621484 -0.297657,-6.449218 0,-2.852539 0.148829,-7.044531 0.0248,-0.719336 1.190625,-1.041797 1.190625,-0.347266 2.356445,-0.07441 1.190625,0.248047 1.215429,0.967383 0.04961,1.90996 -0.0248,4.588867 -0.07441,2.654101 -0.173633,4.415234 -0.07441,1.736328 -0.09922,1.736328 -0.0248,0.124024 0.992188,0.173633 1.016992,0.02481 2.629297,0.07441 1.612304,0.04961 2.554882,0.198437 0.79375,0.124024 1.165821,1.190625 0.396875,1.041797 0.124023,2.083594 -0.272851,1.016992 -1.066601,1.091406 -4.01836,0.396875 -7.317383,-0.148828 Q 72.405038,92.28506 72.30582,91.06963 Z M 87.907968,77.179006 q 0.892969,-0.02481 1.562696,0.421679 0.669726,0.42168 0.79375,1.21543 0.09922,0.620117 -0.496094,1.016992 -0.595313,0.37207 -1.364258,0.37207 -0.768945,0.02481 -1.364258,-0.297656 -0.570508,-0.322461 -0.669726,-0.942578 -0.09922,-0.669726 0.37207,-1.21543 0.471289,-0.545703 1.16582,-0.570507 z m 2.778125,12.923242 q 0.09922,2.827734 -1.413867,3.050976 -2.902148,0.42168 -3.050976,-2.38125 -0.07441,-1.513086 -0.04961,-3.844726 0.02481,-2.331641 -0.0248,-3.894336 -0.04961,-1.091406 1.091406,-1.537891 1.16582,-0.446484 2.182812,0.173633 0.967383,0.620117 0.967383,1.95957 0,1.438672 0.124023,3.720703 0.148829,2.257227 0.173633,2.753321 z m 7.515821,-4.340821 q 0,0 -0.198438,0.09922 -0.148828,0.07441 -0.198437,0.09922 -0.02481,0.02481 -0.148828,0.09922 -0.124024,0.04961 -0.173633,0.09922 -0.02481,0.02481 -0.124024,0.09922 -0.09922,0.07441 -0.148828,0.148828 -0.0248,0.04961 -0.09922,0.148828 -0.04961,0.09922 -0.09922,0.223243 l -0.09922,0.248046 q -0.148828,0.396875 -0.07441,1.240235 0.07441,0.818554 0.198437,1.5875 0.148829,0.768945 0.148829,1.488281 0.0248,0.719336 -0.223243,0.868164 -0.570507,0.42168 -1.513086,0.520898 -0.917773,0.09922 -1.339453,-0.347265 -0.471289,-0.595313 -0.719336,-1.463477 -0.248046,-0.892968 -0.496093,-2.33164 -0.347266,-1.711524 -0.347266,-3.547071 0,-1.835546 0.520898,-2.554882 0.272852,-0.396875 0.942579,-0.595313 0.694531,-0.223242 1.339453,-0.07441 0.942578,0.223242 1.513086,1.389063 0.09922,-0.09922 0.297656,-0.347266 0.223242,-0.248047 0.322461,-0.347266 0.09922,-0.124023 0.297656,-0.297656 0.198438,-0.173633 0.396875,-0.272851 0.198438,-0.09922 0.446484,-0.173633 0.942579,-0.297656 1.711527,-0.248047 0.76894,0.02481 1.71152,0.42168 1.51309,0.570507 1.83555,1.885156 0.76894,3.075781 -1.14102,8.284765 -0.24805,0.669727 -0.94258,0.917774 -0.66972,0.223242 -1.56269,-0.04961 -0.892971,-0.272851 -1.066603,-0.892968 -0.148829,-0.620118 0.471289,-2.480469 0.620114,-1.860352 0.570504,-2.75332 -0.0496,-0.694532 -0.669723,-1.066602 -0.595313,-0.37207 -1.339453,-0.02481 z m 8.880076,5.581055 q -1.43867,-1.810742 -1.0666,-4.638476 0.29766,-2.232422 1.26504,-4.142383 0.29766,-0.595313 1.71152,-0.42168 0.34727,0.04961 0.59532,0.124024 0.27285,0.04961 0.42168,0.198437 0.17363,0.124023 0.27285,0.223242 0.12402,0.09922 0.14883,0.322461 0.0496,0.198438 0.0496,0.322461 0.0248,0.124024 -0.0496,0.396875 -0.0496,0.272852 -0.0744,0.42168 -0.0248,0.124023 -0.12402,0.446484 -0.0992,0.322461 -0.12403,0.471289 -0.14882,0.545703 -0.19843,0.79375 -0.0496,0.223242 -0.0992,0.719336 -0.0496,0.496094 0.0248,0.843359 0.0992,0.992188 0.54571,1.463477 0.47129,0.471289 1.01699,0.446484 0.62012,-0.0248 0.99219,-0.74414 0.37207,-0.719336 0.29765,-2.00918 0,-0.272851 -0.14883,-1.438672 -0.14882,-1.190625 -0.0496,-1.909961 0.0744,-0.545703 0.54571,-0.868164 0.47129,-0.322461 0.91777,-0.396875 0.44649,-0.07441 0.76895,-0.04961 0.32246,0.04961 0.59531,0.347266 0.27285,0.272851 0.42168,0.620117 0.14883,0.322461 0.29766,0.917773 0.14882,0.595313 0.19843,0.917774 0.0744,0.32246 0.14883,0.917773 0.37207,2.430859 -0.0992,3.96875 -0.47129,1.513086 -1.98437,2.629297 -0.96739,0.74414 -2.45567,0.818554 -1.46347,0.09922 -2.80293,-0.37207 -1.31465,-0.496094 -1.95957,-1.339453 z m 14.8084,1.141016 q -0.49609,0.471289 -1.21543,0.545703 -0.57051,0.04961 -1.38906,-0.545703 -1.0666,-0.818555 -0.4961,-1.488282 1.48829,-1.761132 2.82774,-3.323828 -1.38906,-1.686718 -2.82774,-3.175 -0.37207,-0.496093 -0.32246,-0.917773 0.0744,-0.42168 0.44649,-0.744141 0.5457,-0.471289 1.31465,-0.644922 0.76894,-0.173632 1.14101,0.223243 0.91778,0.992187 2.67891,2.852539 1.73633,-1.860352 2.6541,-2.852539 0.39688,-0.396875 1.16582,-0.198438 0.79375,0.173633 1.31465,0.644922 0.37207,0.322461 0.42168,0.744141 0.0496,0.396875 -0.32246,0.892968 -1.41387,1.488282 -2.82774,3.175 1.36426,1.562696 2.82774,3.323828 0.19843,0.297657 0.17363,0.669727 -0.0496,0.520898 -0.81855,0.967383 -0.74415,0.421679 -1.21543,0.396875 -0.74414,-0.07441 -1.24024,-0.545703 -1.11621,-1.116211 -2.1332,-2.257227 -1.0418,1.141016 -2.15801,2.257227 z"
       id="text4-2"
       style="font-size:25.4px;font-family:'Wonderful Fonty Cure!';-inkscape-font-specification:'Wonderful Fonty Cure!';fill:#478061;stroke-width:0.264583"
       transform="rotate(-9.5976654)"
       aria-label="Linux" />
    <path
       style="fill:#000000;stroke-width:0.264583"
       d="M 74.677618,78.961193 Z"
       id="path4" />
    <path
       style="fill:none;stroke:#478061;stroke-width:1.50814;stroke-dasharray:12.065, 1.50814;stroke-dashoffset:0;stroke-opacity:1"
       d="M 74.268999,83.195803 C 148.08108,87.136727 149.7286,65.924971 149.7286,65.924971"
       id="path5" />
  </g>
  <g
     inkscape:groupmode="layer"
     id="layer3"
     inkscape:label="Layer 3"
     style="display:inline"
     transform="translate(-53.673828,-40.202023)">
    <path
       d="m 70.705676,89.473439 q -0.272851,-3.621484 -0.297656,-6.449219 0,-2.852539 0.148828,-7.044531 0.02481,-0.719336 1.190625,-1.041797 1.190625,-0.347265 2.356445,-0.07441 1.190625,0.248047 1.21543,0.967383 0.04961,1.909961 -0.02481,4.588867 -0.07441,2.654102 -0.173632,4.415235 -0.07442,1.736328 -0.09922,1.736328 -0.02481,0.124023 0.992187,0.173632 1.016992,0.02481 2.629297,0.07442 1.612305,0.04961 2.554883,0.198437 0.79375,0.124023 1.16582,1.190625 0.396875,1.041797 0.124024,2.083594 -0.272852,1.016992 -1.066602,1.091406 -4.018359,0.396875 -7.317383,-0.148828 -3.299023,-0.545703 -3.398242,-1.761133 z M 86.307825,75.582814 q 0.892969,-0.0248 1.562695,0.42168 0.669727,0.42168 0.79375,1.21543 0.09922,0.620117 -0.496094,1.016992 -0.595312,0.37207 -1.364257,0.37207 -0.768946,0.02481 -1.364258,-0.297656 -0.570508,-0.322461 -0.669727,-0.942578 -0.09922,-0.669727 0.372071,-1.21543 0.471289,-0.545703 1.16582,-0.570508 z m 2.778125,12.923242 q 0.09922,2.827735 -1.413867,3.050977 -2.902149,0.421679 -3.050977,-2.38125 -0.07441,-1.513086 -0.04961,-3.844727 0.0248,-2.33164 -0.02481,-3.894336 -0.04961,-1.091406 1.091406,-1.53789 1.165821,-0.446485 2.182813,0.173633 0.967383,0.620117 0.967383,1.95957 0,1.438672 0.124023,3.720703 0.148828,2.257227 0.173633,2.75332 z m 7.51582,-4.34082 q 0,0 -0.198437,0.09922 -0.148828,0.07441 -0.198438,0.09922 -0.0248,0.0248 -0.148828,0.09922 -0.124023,0.04961 -0.173633,0.09922 -0.0248,0.02481 -0.124023,0.09922 -0.09922,0.07441 -0.148828,0.148828 -0.02481,0.04961 -0.09922,0.148828 -0.04961,0.09922 -0.09922,0.223242 l -0.09922,0.248047 q -0.148829,0.396875 -0.07441,1.240234 0.07441,0.818555 0.198437,1.5875 0.148828,0.768946 0.148828,1.488282 0.02481,0.719336 -0.223242,0.868164 -0.570508,0.421679 -1.513086,0.520898 -0.917773,0.09922 -1.339453,-0.347266 -0.471289,-0.595312 -0.719336,-1.463476 -0.248047,-0.892969 -0.496094,-2.331641 -0.347265,-1.711523 -0.347265,-3.54707 0,-1.835547 0.520898,-2.554883 0.272852,-0.396875 0.942578,-0.595312 0.694531,-0.223242 1.339453,-0.07441 0.942578,0.223242 1.513086,1.389062 0.09922,-0.09922 0.297656,-0.347265 0.223243,-0.248047 0.322461,-0.347266 0.09922,-0.124023 0.297657,-0.297656 0.198437,-0.173633 0.396875,-0.272852 0.198437,-0.09922 0.446484,-0.173633 0.942578,-0.297656 1.711523,-0.248046 0.768946,0.0248 1.711527,0.421679 1.51308,0.570508 1.83554,1.885156 0.76895,3.075782 -1.14101,8.284766 -0.24805,0.669726 -0.94258,0.917773 -0.669727,0.223243 -1.562695,-0.04961 -0.892969,-0.272852 -1.066602,-0.892969 -0.148828,-0.620117 0.471289,-2.480468 0.620117,-1.860352 0.570508,-2.753321 -0.04961,-0.694531 -0.669727,-1.066601 -0.595312,-0.372071 -1.339453,-0.02481 z m 8.88008,5.581055 q -1.43867,-1.810743 -1.0666,-4.638477 0.29765,-2.232422 1.26504,-4.142383 0.29765,-0.595312 1.71152,-0.421679 0.34727,0.04961 0.59531,0.124023 0.27285,0.04961 0.42168,0.198438 0.17364,0.124023 0.27285,0.223242 0.12403,0.09922 0.14883,0.322461 0.0496,0.198437 0.0496,0.322461 0.0248,0.124023 -0.0496,0.396875 -0.0496,0.272851 -0.0744,0.421679 -0.0248,0.124024 -0.12403,0.446485 -0.0992,0.322461 -0.12402,0.471289 -0.14883,0.545703 -0.19844,0.79375 -0.0496,0.223242 -0.0992,0.719336 -0.0496,0.496093 0.0248,0.843359 0.0992,0.992188 0.5457,1.463477 0.47129,0.471289 1.017,0.446484 0.62011,-0.02481 0.99218,-0.744141 0.37207,-0.719336 0.29766,-2.009179 0,-0.272852 -0.14883,-1.438672 -0.14883,-1.190625 -0.0496,-1.909961 0.0744,-0.545703 0.5457,-0.868164 0.47129,-0.322461 0.91778,-0.396875 0.44648,-0.07441 0.76894,-0.04961 0.32246,0.04961 0.59532,0.347265 0.27285,0.272852 0.42168,0.620117 0.14882,0.322461 0.29765,0.917774 0.14883,0.595312 0.19844,0.917773 0.0744,0.322461 0.14883,0.917774 0.37207,2.430859 -0.0992,3.96875 -0.47129,1.513085 -1.98438,2.629296 -0.96738,0.744141 -2.45566,0.818555 -1.46348,0.09922 -2.80293,-0.37207 -1.31465,-0.496094 -1.95957,-1.339453 z m 14.8084,1.141015 q -0.4961,0.471289 -1.21543,0.545703 -0.57051,0.04961 -1.38906,-0.545703 -1.06661,-0.818554 -0.4961,-1.488281 1.48828,-1.761133 2.82774,-3.323828 -1.38907,-1.686719 -2.82774,-3.175 -0.37207,-0.496094 -0.32246,-0.917773 0.0744,-0.42168 0.44648,-0.744141 0.54571,-0.471289 1.31465,-0.644922 0.76895,-0.173633 1.14102,0.223242 0.91777,0.992188 2.67891,2.852539 1.73632,-1.860351 2.6541,-2.852539 0.39687,-0.396875 1.16582,-0.198437 0.79375,0.173633 1.31465,0.644922 0.37207,0.322461 0.42167,0.74414 0.0496,0.396875 -0.32246,0.892969 -1.41386,1.488281 -2.82773,3.175 1.36426,1.562695 2.82773,3.323828 0.19844,0.297656 0.17364,0.669727 -0.0496,0.520898 -0.81856,0.967382 -0.74414,0.42168 -1.21543,0.396875 -0.74414,-0.07441 -1.24023,-0.545703 -1.11621,-1.116211 -2.1332,-2.257226 -1.0418,1.141015 -2.15801,2.257226 z"
       id="text4"
       style="font-size:25.4px;font-family:'Wonderful Fonty Cure!';-inkscape-font-specification:'Wonderful Fonty Cure!';fill:#478061;stroke:#ffffff;stroke-width:0.965"
       transform="rotate(-9.5976654)"
       aria-label="Linux" />
    <path
       style="font-size:25.4px;font-family:'Wonderful Fonty Cure!';-inkscape-font-specification:'Wonderful Fonty Cure!';fill:#abc2ab;stroke:#ffffff;stroke-width:0.965"
       d="m 62.757698,74.81436 q -1.066602,-0.719336 -1.661914,-1.463476 -0.570508,-0.768946 -1.21543,-2.083594 -0.173633,-0.297656 -0.297656,-0.595313 -0.124023,-0.322461 -0.248047,-0.545703 -0.09922,-0.223242 -0.198437,-0.545703 -0.09922,-0.347266 -0.173633,-0.496094 -0.04961,-0.148828 -0.148828,-0.545703 L 58.689729,68.04268 q -0.0248,-0.09922 -0.124023,-0.545703 -0.09922,-0.471289 -0.124024,-0.520898 0,-0.07441 -0.09922,-0.620117 -0.09922,-0.570508 -0.124024,-0.644922 -0.0248,-0.173633 -0.173633,-0.892969 -0.148828,-0.719336 -0.223242,-1.141015 -0.07441,-0.42168 -0.173633,-1.141016 -0.09922,-0.744141 -0.07441,-1.21543 0.04961,-0.471289 0.124024,-0.992187 0.09922,-0.545703 0.37207,-0.892969 0.272852,-0.347266 0.694531,-0.520898 1.091407,-0.471289 1.736328,-0.248047 0.644922,0.223242 1.141016,1.364258 0.446484,1.041796 1.141016,3.745507 0.719336,2.678906 1.016992,3.373438 0.79375,1.934765 1.438672,2.207617 0.248047,0.09922 0.37207,-0.173633 0.272852,-0.644922 1.513086,-5.010547 1.240234,-4.390429 1.413867,-4.911328 0.272852,-0.694531 1.091406,-0.768945 0.84336,-0.07441 1.661914,0.297656 0.84336,0.347266 1.190625,0.868164 0.322461,0.496094 0.372071,1.016992 0.07441,0.496094 0,1.041797 -0.198438,1.686719 -0.446485,2.827735 -0.248047,1.116211 -0.79375,2.70371 -0.07441,0.248047 -0.37207,1.165821 -0.272852,0.892969 -0.471289,1.463476 -0.173633,0.570508 -0.545703,1.463477 -0.372071,0.892969 -0.719336,1.488281 -0.322461,0.570508 -0.818555,1.116211 -0.471289,0.545703 -0.967383,0.79375 -0.74414,0.37207 -1.5875,0.545703 -0.843359,0.173633 -1.785937,0.07441 -0.917773,-0.07441 -1.5875,-0.545703 z m 17.140038,-2.282031 q 0.520899,0.07441 1.21543,-0.272852 0.694531,-0.347265 1.240234,-0.942578 0.545703,-0.595312 0.818555,-1.289844 0.272852,-0.719335 -0.07441,-1.314648 -0.37207,-0.669727 -0.992188,-0.818555 -0.595312,-0.173632 -1.116211,0.04961 -0.520898,0.198437 -0.892968,0.595312 -0.595313,-0.570508 -0.84336,-0.644922 -0.07441,-0.0248 -0.272851,-0.07441 -0.173633,-0.04961 -0.223242,-0.04961 -0.04961,-0.02481 -0.173633,-0.02481 -0.124024,-0.0248 -0.198438,0 -0.07441,0.02481 -0.198437,0.07441 -0.124024,0.02481 -0.272852,0.09922 -0.74414,0.42168 -0.818554,1.190625 -0.04961,0.744141 0.396875,1.463477 0.446484,0.719335 1.116211,1.289843 0.694531,0.570508 1.289843,0.669727 z m 6.077149,-0.347266 q -0.446485,1.21543 -1.165821,1.934766 -0.694531,0.694531 -1.885156,1.16582 -1.389062,0.471289 -2.877344,0.198438 -1.463476,-0.248047 -2.75332,-1.016993 -1.438672,-0.868164 -2.133203,-2.108398 -0.669727,-1.240234 -0.595312,-2.480469 0.09922,-1.240234 0.644921,-2.406054 0.570508,-1.165821 1.488282,-1.984375 2.182812,-1.934766 6.126757,-0.79375 1.240235,0.37207 2.058789,1.240234 0.84336,0.843359 1.165821,1.934766 0.347265,1.066601 0.322461,2.207617 -0.02481,1.141015 -0.396875,2.108398 z m 4.067968,-12.65039 q 0.892969,-0.02481 1.562695,0.421679 0.669727,0.42168 0.79375,1.21543 0.09922,0.620117 -0.496093,1.016992 -0.595313,0.372071 -1.364258,0.372071 -0.768945,0.0248 -1.364258,-0.297657 -0.570508,-0.322461 -0.669726,-0.942578 -0.09922,-0.669726 0.37207,-1.215429 0.471289,-0.545704 1.16582,-0.570508 z m 2.778125,12.923242 q 0.09922,2.827734 -1.413867,3.050976 -2.902148,0.42168 -3.050977,-2.38125 -0.07441,-1.513086 -0.04961,-3.844726 0.02481,-2.331641 -0.0248,-3.894336 -0.04961,-1.091406 1.091407,-1.537891 1.16582,-0.446484 2.182812,0.173633 0.967383,0.620117 0.967383,1.95957 0,1.438672 0.124023,3.720704 0.148828,2.257226 0.173633,2.75332 z m 6.920509,-3.919141 q -0.917773,0.496094 -1.116211,1.240235 -0.248047,0.868164 0.248047,1.513085 0.496094,0.620118 1.537887,0.694532 1.11621,0.124023 1.68672,-0.42168 0.59531,-0.545703 0.39688,-1.736328 -0.19844,-1.016992 -1.0418,-1.389063 -0.81855,-0.37207 -1.711523,0.09922 z m 2.406053,-3.12539 q -0.12402,-1.240235 -0.17363,-2.182813 0,-0.173633 -0.0744,-0.719336 -0.0496,-0.545703 -0.0496,-0.892968 0.0248,-0.347266 0.0744,-0.79375 0.0496,-0.47129 0.27285,-0.79375 0.22324,-0.322461 0.62012,-0.496094 0.91777,-0.42168 2.1084,-0.07441 0.5209,0.09922 0.71933,0.818554 0.64492,3.026172 0.94258,6.821289 0.22324,2.356446 -0.0248,4.39043 -0.0248,0.223242 -0.0992,0.868164 -0.0744,0.620117 -0.12403,0.868164 -0.0496,0.248047 -0.24804,0.669727 -0.19844,0.421679 -0.5209,0.768945 -1.33945,1.463476 -3.47266,0.248047 -0.74414,0.37207 -1.33945,0.545703 -0.59531,0.198437 -1.413868,0.148828 -0.79375,-0.02481 -1.562695,-0.446484 -1.21543,-0.694532 -1.909961,-1.413867 -0.694531,-0.719336 -1.041797,-1.934766 -0.446484,-1.711524 -0.02481,-3.026172 0.446485,-1.314648 1.463477,-2.133203 1.016992,-0.843359 2.33164,-1.190625 1.314649,-0.37207 2.629299,-0.198437 0.57051,0.07441 0.91777,0.148828 z"
       id="text1-4"
       transform="rotate(-9.5976654)"
       aria-label="Void&#10;" />
    <path
       style="font-size:16.0038px;font-family:'Wonderful Fonty Cure!';-inkscape-font-specification:'Wonderful Fonty Cure!';fill:#abc2ab;stroke-width:0.608019"
       d="m 84.54186,78.180086 q -0.312575,0.296946 -0.765807,0.343832 -0.359461,0.03126 -0.875208,-0.343832 -0.672035,-0.515747 -0.312574,-0.937722 0.937722,-1.109639 1.781673,-2.094248 -0.875208,-1.062752 -1.781673,-2.000474 -0.234431,-0.312575 -0.203173,-0.578263 0.04689,-0.265688 0.281316,-0.468861 0.343832,-0.296946 0.828322,-0.406346 0.48449,-0.109401 0.718921,0.140658 0.578262,0.625148 1.6879,1.797302 1.09401,-1.172154 1.672272,-1.797302 0.25006,-0.250059 0.73455,-0.12503 0.500119,0.109401 0.828321,0.406347 0.234431,0.203173 0.265689,0.468861 0.03126,0.250059 -0.203174,0.562634 -0.890836,0.937722 -1.781673,2.000474 0.859579,0.984609 1.781673,2.094248 0.12503,0.187544 0.109401,0.421975 -0.03126,0.328203 -0.515747,0.60952 -0.468861,0.265688 -0.765807,0.250059 -0.468861,-0.04689 -0.781436,-0.343832 -0.703291,-0.703292 -1.344069,-1.422212 -0.656405,0.71892 -1.359697,1.422212 z m 10.330577,-3.969692 q -0.562634,-0.296946 -1.09401,-0.06251 -0.515747,0.234431 -0.640777,0.875208 -0.12503,0.750178 0.250059,1.09401 0.375089,0.343831 1.078381,0.265688 0.656406,-0.04689 0.953352,-0.437604 0.312574,-0.406347 0.156287,-0.953352 -0.12503,-0.468861 -0.703292,-0.781435 z m -1.515985,-1.969218 q 0.218802,-0.04689 0.578262,-0.09377 0.828322,-0.109401 1.656643,0.12503 0.843951,0.218802 1.469099,0.750178 0.640777,0.515747 0.906465,1.344069 0.281317,0.828322 0,1.906703 -0.218802,0.765806 -0.656405,1.219039 -0.421976,0.453233 -1.203411,0.890837 -0.48449,0.265688 -1.000238,0.281316 -0.500118,0.03126 -0.875207,-0.09377 -0.359461,-0.109401 -0.843951,-0.343832 -1.32844,0.765807 -2.188019,-0.156287 -0.203173,-0.218802 -0.328203,-0.48449 -0.109401,-0.265688 -0.156287,-0.421975 -0.03126,-0.156287 -0.07814,-0.547005 -0.03126,-0.406346 -0.06252,-0.547005 -0.156287,-1.281554 -0.01563,-2.766281 0.187544,-2.391193 0.593891,-4.297896 0.125029,-0.453232 0.453232,-0.515747 0.750178,-0.218802 1.328441,0.04689 0.250059,0.109401 0.390717,0.312574 0.140659,0.203173 0.171916,0.500119 0.04689,0.281317 0.04689,0.500119 0,0.218802 -0.04689,0.562633 -0.03126,0.343832 -0.03126,0.453233 -0.03126,0.593891 -0.109401,1.375326 z m 10.346208,3.547718 q 0.57826,-0.312575 0.70329,-0.781436 0.15629,-0.547005 -0.15629,-0.937723 -0.31257,-0.406346 -0.96898,-0.453232 -0.70329,-0.07814 -1.07838,0.265688 -0.35946,0.343832 -0.23443,1.09401 0.12503,0.640777 0.64078,0.875207 0.53137,0.234431 1.09401,-0.06251 z m -1.51599,1.969217 q 0.0156,0.203173 0.0781,0.593891 0.0625,0.390718 0.0938,0.656406 0.0313,0.265688 0.0313,0.625148 0.0156,0.359461 -0.0313,0.593891 -0.0469,0.25006 -0.20318,0.468862 -0.14065,0.23443 -0.39071,0.343831 -0.51575,0.265688 -1.09401,0.12503 -0.56264,-0.12503 -0.687666,-0.593891 -0.281317,-1.344069 -0.390718,-2.016104 -0.109401,-0.672034 -0.203173,-1.859816 -0.359461,-3.672747 0.640777,-4.766757 0.84395,-0.922094 2.18802,-0.156287 0.46886,-0.234431 0.84395,-0.343832 0.37509,-0.125029 0.87521,-0.09377 0.51574,0.01563 1.00023,0.281317 0.76581,0.437604 1.20342,0.890836 0.4376,0.453233 0.6564,1.21904 0.28132,1.078381 0,1.906703 -0.26569,0.828321 -0.90646,1.359697 -0.64078,0.515748 -1.4691,0.750178 -0.82832,0.218802 -1.65665,0.109401 -0.35946,-0.04689 -0.57826,-0.09377 z m 11.59651,-4.032207 q -0.0625,0.12503 -0.25006,0.07814 -0.18755,-0.06251 -0.34383,-0.171915 -0.15629,-0.12503 -0.42198,-0.25006 -0.25006,-0.125029 -0.45323,-0.140658 -0.18755,-0.01563 -0.34383,0 -0.14066,0 -0.25006,0.09377 -0.0938,0.07814 -0.15629,0.250059 -0.1094,0.296946 0.12503,0.515748 0.23443,0.218802 0.56263,0.312574 0.78144,0.218802 1.23467,0.640777 0.45323,0.421975 0.51575,1.09401 0.0781,0.656406 -0.35946,1.515985 -0.26569,0.531376 -0.70329,0.797064 -0.42198,0.250059 -1.0315,0.281317 -1.20341,0.06251 -2.0161,-0.09377 -0.79707,-0.140659 -1.64102,-0.703292 -0.18754,-0.12503 -0.18754,-0.421976 0,-0.296945 0.15629,-0.593891 0.17191,-0.312574 0.39071,-0.578262 0.23443,-0.281317 0.48449,-0.35946 0.26569,-0.09377 0.46887,0.03126 0.0781,0.04689 0.25005,0.203174 0.17192,0.140658 0.26569,0.218801 0.1094,0.06251 0.31258,0.156288 0.20317,0.07814 0.4376,0.109401 0.45323,0.07814 0.75018,-0.01563 0.29694,-0.09377 0.39072,-0.25006 0.0938,-0.156287 0,-0.296945 -0.0938,-0.156287 -0.32821,-0.250059 -0.2188,-0.09377 -0.60952,-0.234431 -0.39071,-0.140658 -0.75017,-0.390718 -1.12527,-0.765807 -1.12527,-1.81293 0,-0.406347 0.1094,-0.781436 0.12503,-0.390718 0.46886,-0.765807 0.35946,-0.390717 0.90647,-0.531376 0.70329,-0.156287 1.75041,-0.06252 1.06275,0.07814 1.71916,0.343832 0.26569,0.12503 0.2188,0.562634 -0.0313,0.421975 -0.2188,0.859579 -0.17192,0.437604 -0.3282,0.640777 z"
       id="text1-4-9-5"
       transform="rotate(5.3826227)"
       aria-label="xbps&#10;" />
    <path
       style="font-size:16.0038px;font-family:'Wonderful Fonty Cure!';-inkscape-font-specification:'Wonderful Fonty Cure!';fill:#abc2ab;stroke:#ffffff;stroke-width:0.608019"
       d="m 83.710851,77.096903 q -0.312575,0.296946 -0.765807,0.343832 -0.35946,0.03126 -0.875208,-0.343832 -0.672034,-0.515747 -0.312574,-0.937723 0.937723,-1.109638 1.781673,-2.094247 -0.875208,-1.062752 -1.781673,-2.000475 -0.234431,-0.312574 -0.203173,-0.578262 0.04689,-0.265688 0.281316,-0.468861 0.343832,-0.296946 0.828322,-0.406347 0.48449,-0.109401 0.718921,0.140659 0.578262,0.625148 1.6879,1.797301 1.09401,-1.172153 1.672273,-1.797301 0.250059,-0.25006 0.734549,-0.12503 0.500119,0.109401 0.828322,0.406346 0.23443,0.203174 0.265688,0.468862 0.03126,0.250059 -0.203174,0.562633 -0.890836,0.937723 -1.781673,2.000475 0.859579,0.984609 1.781673,2.094247 0.12503,0.187545 0.109401,0.421976 -0.03126,0.328203 -0.515747,0.609519 -0.468861,0.265688 -0.765807,0.25006 -0.468861,-0.04689 -0.781435,-0.343832 -0.703292,-0.703292 -1.34407,-1.422213 -0.656405,0.718921 -1.359697,1.422213 z m 10.330577,-3.969692 q -0.562634,-0.296946 -1.09401,-0.06252 -0.515747,0.23443 -0.640777,0.875208 -0.12503,0.750178 0.250059,1.094009 0.375089,0.343832 1.078381,0.265688 0.656406,-0.04689 0.953352,-0.437604 0.312574,-0.406346 0.156287,-0.953351 -0.12503,-0.468861 -0.703292,-0.781435 z m -1.515985,-1.969218 q 0.218802,-0.04689 0.578262,-0.09377 0.828322,-0.109401 1.656643,0.125029 0.843951,0.218802 1.469099,0.750179 0.640777,0.515747 0.906465,1.344069 0.281317,0.828321 0,1.906702 -0.218801,0.765807 -0.656405,1.21904 -0.421976,0.453232 -1.203411,0.890836 -0.48449,0.265688 -1.000238,0.281317 -0.500118,0.03126 -0.875207,-0.09377 -0.359461,-0.109401 -0.843951,-0.343832 -1.32844,0.765807 -2.188019,-0.156287 -0.203173,-0.218802 -0.328203,-0.48449 -0.109401,-0.265688 -0.156287,-0.421975 -0.03126,-0.156287 -0.07814,-0.547005 -0.03126,-0.406346 -0.06252,-0.547005 -0.156287,-1.281554 -0.01563,-2.766282 0.187544,-2.391192 0.593891,-4.297895 0.125029,-0.453233 0.453232,-0.515747 0.750178,-0.218802 1.328441,0.04689 0.250059,0.109401 0.390717,0.312574 0.140659,0.203173 0.171916,0.500119 0.04689,0.281316 0.04689,0.500118 0,0.218802 -0.04689,0.562634 -0.03126,0.343832 -0.03126,0.453233 -0.03126,0.593891 -0.109401,1.375326 z m 10.346207,3.547717 q 0.57826,-0.312574 0.70329,-0.781435 0.15629,-0.547005 -0.15629,-0.937723 -0.31257,-0.406346 -0.96898,-0.453232 -0.70329,-0.07814 -1.07838,0.265688 -0.35946,0.343831 -0.23443,1.094009 0.12503,0.640778 0.64078,0.875208 0.53137,0.234431 1.09401,-0.06252 z m -1.51599,1.969218 q 0.0156,0.203173 0.0781,0.593891 0.0625,0.390718 0.0938,0.656406 0.0313,0.265688 0.0313,0.625148 0.0156,0.35946 -0.0313,0.593891 -0.0469,0.250059 -0.20317,0.468861 -0.14066,0.234431 -0.39072,0.343832 -0.51575,0.265688 -1.094012,0.12503 -0.562633,-0.12503 -0.687663,-0.593891 -0.281317,-1.344069 -0.390718,-2.016104 -0.109401,-0.672034 -0.203173,-1.859816 -0.35946,-3.672747 0.640777,-4.766757 0.843949,-0.922094 2.188019,-0.156287 0.46886,-0.234431 0.84395,-0.343832 0.37509,-0.12503 0.87521,-0.09377 0.51575,0.01563 1.00024,0.281317 0.7658,0.437604 1.20341,0.890836 0.4376,0.453233 0.6564,1.21904 0.28132,1.078381 0,1.906702 -0.26569,0.828322 -0.90646,1.359698 -0.64078,0.515747 -1.4691,0.750178 -0.82832,0.218802 -1.65664,0.109401 -0.35947,-0.04689 -0.57827,-0.09377 z m 11.59651,-4.032207 q -0.0625,0.125029 -0.25006,0.07814 -0.18755,-0.06252 -0.34383,-0.171916 -0.15629,-0.125029 -0.42198,-0.250059 -0.25006,-0.12503 -0.45323,-0.140658 -0.18755,-0.01563 -0.34383,0 -0.14066,0 -0.25006,0.09377 -0.0938,0.07814 -0.15629,0.250059 -0.1094,0.296946 0.12503,0.515748 0.23443,0.218802 0.56263,0.312574 0.78144,0.218802 1.23467,0.640777 0.45324,0.421975 0.51575,1.09401 0.0781,0.656406 -0.35946,1.515985 -0.26569,0.531376 -0.70329,0.797064 -0.42198,0.250059 -1.0315,0.281317 -1.20341,0.06251 -2.0161,-0.09377 -0.79706,-0.140658 -1.64102,-0.703292 -0.18754,-0.125029 -0.18754,-0.421975 0,-0.296945 0.15629,-0.593891 0.17191,-0.312574 0.39072,-0.578262 0.23443,-0.281317 0.48449,-0.35946 0.26568,-0.09377 0.46886,0.03126 0.0781,0.04689 0.25006,0.203173 0.17191,0.140659 0.26568,0.218802 0.1094,0.06252 0.31258,0.156287 0.20317,0.07814 0.4376,0.109401 0.45323,0.07814 0.75018,-0.01563 0.29695,-0.09377 0.39072,-0.25006 0.0938,-0.156287 0,-0.296945 -0.0938,-0.156287 -0.32821,-0.25006 -0.2188,-0.09377 -0.60951,-0.23443 -0.39072,-0.140659 -0.75018,-0.390718 -1.12527,-0.765807 -1.12527,-1.812931 0,-0.406346 0.1094,-0.781435 0.12503,-0.390718 0.46886,-0.765807 0.35946,-0.390718 0.90647,-0.531376 0.70329,-0.156287 1.75041,-0.06251 1.06276,0.07814 1.71916,0.343832 0.26569,0.125029 0.2188,0.562633 -0.0312,0.421976 -0.2188,0.859579 -0.17191,0.437604 -0.3282,0.640778 z"
       id="text1-4-9"
       transform="rotate(5.3826227)"
       aria-label="xbps&#10;" />
    <path
       style="font-size:16.0038px;font-family:'Wonderful Fonty Cure!';-inkscape-font-specification:'Wonderful Fonty Cure!';fill:#abc2ab;stroke-width:0.608019"
       d="m 102.89052,105.36838 q -0.40635,0.51574 -1.10964,0.64077 -0.68766,0.12503 -1.56287,-0.20317 -0.375091,-0.14066 -0.578264,-1.23467 -0.187545,-1.10964 -0.218802,-2.10987 -0.01563,-1.00024 0.01563,-1.81293 0,-0.0313 0,-0.18755 0.01563,-0.15629 0.01563,-0.20317 0,-0.0625 0,-0.20317 0.01563,-0.156292 0.03126,-0.234435 0.01563,-0.07814 0.03126,-0.203174 0.01563,-0.140658 0.04689,-0.218801 0.03126,-0.07814 0.06252,-0.171916 0.03126,-0.109401 0.07814,-0.187545 0.06252,-0.07814 0.109401,-0.140658 0.296948,-0.281317 1.062748,-0.265688 0.78144,0.01563 1.09401,0.296945 0.0782,0.06251 0.12503,0.12503 0.0469,0.06252 0.0781,0.171916 0.0312,0.09377 0.0469,0.140658 0.0156,0.03126 0.0313,0.187545 0.0156,0.140658 0.0156,0.187544 0.34383,-0.35946 0.71892,-0.60952 0.12503,-0.07814 0.23443,-0.140658 0.1094,-0.06251 0.23443,-0.09377 0.12503,-0.04689 0.20317,-0.07814 0.0782,-0.03126 0.23444,-0.04689 0.15628,-0.01563 0.2188,-0.01563 0.0625,-0.01563 0.26569,-0.03126 0.20317,-0.03126 0.26568,-0.03126 0.32821,-0.03126 0.57827,0.07814 0.25005,0.09377 0.25005,0.343832 0.0625,0.968977 0,1.469097 -0.0625,0.50012 -0.20317,0.65641 -0.14066,0.15628 -0.42197,0.14066 -0.0313,0 -0.56264,-0.0781 -0.53137,-0.0781 -0.90646,-0.0469 -0.26569,0.0156 -0.50012,0.39071 -0.2188,0.35946 -0.25006,0.7033 -0.0313,0.28131 0.0625,0.75017 0.10941,0.46887 0.20318,0.85958 0.1094,0.37509 0.14066,0.79707 0.0312,0.42197 -0.14066,0.60952 z m 4.42292,-0.57827 q -0.90646,-1.14089 -0.67203,-2.92256 0.18754,-1.40659 0.79706,-2.609999 0.18755,-0.375089 1.07838,-0.265688 0.21881,0.03126 0.37509,0.07814 0.17192,0.03126 0.26569,0.125029 0.1094,0.07814 0.17192,0.140659 0.0781,0.06252 0.0938,0.203173 0.0313,0.12503 0.0313,0.203173 0.0156,0.07814 -0.0313,0.25006 -0.0313,0.171919 -0.0469,0.265689 -0.0156,0.0781 -0.0781,0.28132 -0.0625,0.20317 -0.0781,0.29694 -0.0938,0.34383 -0.12503,0.50012 -0.0313,0.14066 -0.0625,0.45323 -0.0313,0.31258 0.0156,0.53138 0.0625,0.62515 0.34383,0.92209 0.29695,0.29695 0.64078,0.28132 0.39072,-0.0156 0.62515,-0.46886 0.23443,-0.45323 0.18754,-1.26593 0,-0.17191 -0.0938,-0.90646 -0.0938,-0.75018 -0.0313,-1.203414 0.0469,-0.343831 0.34383,-0.547005 0.29695,-0.203173 0.57827,-0.250059 0.28131,-0.04689 0.48449,-0.03126 0.20317,0.03126 0.37508,0.218802 0.17192,0.171915 0.26569,0.390717 0.0938,0.203174 0.18755,0.578266 0.0938,0.37509 0.12503,0.57826 0.0469,0.20317 0.0938,0.57826 0.23443,1.53161 -0.0625,2.50059 -0.29694,0.95336 -1.25029,1.65665 -0.60952,0.46886 -1.54725,0.51575 -0.92209,0.0625 -1.76604,-0.23444 -0.82832,-0.31257 -1.23467,-0.84395 z m 10.75256,-3.51646 q 0,0 -0.12503,0.0625 -0.0938,0.0469 -0.12503,0.0625 -0.0156,0.0156 -0.0938,0.0625 -0.0781,0.0313 -0.1094,0.0625 -0.0156,0.0156 -0.0781,0.0625 -0.0625,0.0469 -0.0938,0.0938 -0.0156,0.0313 -0.0625,0.0938 -0.0313,0.0625 -0.0625,0.14066 l -0.0625,0.15629 q -0.0938,0.25006 -0.0469,0.78143 0.0469,0.51575 0.12503,1.00024 0.0938,0.48449 0.0938,0.93772 0.0156,0.45324 -0.14066,0.54701 -0.35946,0.26569 -0.95335,0.3282 -0.57826,0.0625 -0.84395,-0.2188 -0.29695,-0.37509 -0.45323,-0.92209 -0.15629,-0.56264 -0.31258,-1.4691 -0.2188,-1.07838 -0.2188,-2.23491 0,-1.156522 0.3282,-1.609755 0.17192,-0.250059 0.59389,-0.375089 0.43761,-0.140658 0.84395,-0.04689 0.59389,0.140658 0.95335,0.875208 0.0625,-0.06252 0.18755,-0.218802 0.14066,-0.156287 0.20317,-0.218802 0.0625,-0.07814 0.18755,-0.187545 0.12503,-0.109401 0.25006,-0.171916 0.12503,-0.06251 0.28131,-0.109401 0.59389,-0.187544 1.07838,-0.156287 0.48449,0.01563 1.07839,0.265688 0.95335,0.359461 1.15652,1.187787 0.48449,1.93796 -0.71892,5.21998 -0.15629,0.42198 -0.59389,0.57827 -0.42198,0.14066 -0.98461,-0.0313 -0.56263,-0.17192 -0.67204,-0.56263 -0.0938,-0.39072 0.29695,-1.56288 0.39072,-1.17215 0.35946,-1.73478 -0.0313,-0.43761 -0.42197,-0.67204 -0.37509,-0.23443 -0.84395,-0.0156 z m 6.03268,-5.407529 q 0.56263,-0.01563 0.98461,0.265688 0.42197,0.265688 0.50012,0.765807 0.0625,0.390718 -0.31258,0.640777 -0.37509,0.234431 -0.85958,0.234431 -0.48449,0.01563 -0.85958,-0.187545 -0.35946,-0.203173 -0.42197,-0.593891 -0.0625,-0.421975 0.23443,-0.765807 0.29694,-0.343831 0.73455,-0.35946 z m 1.75041,8.142559 q 0.0625,1.78167 -0.89083,1.92233 -1.82856,0.26569 -1.92233,-1.50036 -0.0469,-0.95335 -0.0313,-2.42245 0.0156,-1.46909 -0.0156,-2.453703 -0.0313,-0.687664 0.68766,-0.96898 0.73455,-0.281317 1.37533,0.109401 0.60952,0.390717 0.60952,1.234668 0,0.906464 0.0781,2.344304 0.0938,1.42221 0.1094,1.73479 z m 5.26688,-0.89084 q 0.15629,0.20318 0.39072,0.25006 0.25006,0.0469 0.50012,-0.14066 0.25006,-0.18754 0.48449,-0.40634 0.23443,-0.23443 0.40634,-0.25006 0.15629,-0.0156 0.29695,0.0469 0.15629,0.0469 0.23443,0.1094 0.0781,0.0469 0.25006,0.18755 0.85958,0.62515 0.26569,1.54724 -0.48449,0.75018 -1.29719,1.12527 -0.81269,0.35946 -1.53161,0.29694 -2.09425,-0.17191 -2.51622,-2.03173 -0.0781,-0.29694 -0.1094,-1.42221 -0.0156,-1.12527 0.0312,-1.64102 -0.34383,0.0625 -0.68766,0.0469 -0.46886,-0.0469 -0.75018,-0.3282 -0.26569,-0.28132 -0.28131,-0.609522 -0.0156,-0.343831 0.18754,-0.640777 0.2188,-0.312574 0.60952,-0.390718 0.48449,-0.09377 0.95335,-0.109401 0,0 0,-0.09377 v -0.171916 -0.203173 q 0,-0.140658 0.0156,-0.250059 0.0156,-0.12503 0.0469,-0.281317 0.0312,-0.156287 0.0781,-0.296946 0.0469,-0.140658 0.12503,-0.281316 0.0781,-0.156287 0.17192,-0.281317 0.29694,-0.406347 0.92209,-0.406347 0.65641,0 0.98461,0.515748 0.0938,0.140658 0.0781,0.593891 -0.0156,0.281317 -0.0781,0.562633 -0.0625,0.281317 -0.0625,0.312575 -0.0156,0.109401 -0.0156,0.250059 1.01587,-0.09377 1.54725,0.06252 0.46886,0.140658 0.57826,0.578262 0.15629,0.531376 -0.12503,0.953348 -0.2188,0.32821 -0.89084,0.37509 -0.50012,0.0625 -1.09401,0.0156 0.0156,0.26569 0,0.59389 -0.0156,0.31258 0,0.67204 0.0313,0.34383 0.0781,0.64077 0.0625,0.28132 0.20317,0.50012 z"
       id="text1-4-9-5-4"
       transform="rotate(-11.483551)"
       aria-label="runit&#10;" />
    <path
       style="font-size:16.0038px;font-family:'Wonderful Fonty Cure!';-inkscape-font-specification:'Wonderful Fonty Cure!';fill:#abc2ab;stroke:#ffffff;stroke-width:0.608019"
       d="m 102.0595,104.28519 q -0.40635,0.51575 -1.10964,0.64078 -0.68766,0.12503 -1.562868,-0.20317 -0.375089,-0.14066 -0.578263,-1.23467 -0.187544,-1.10964 -0.218802,-2.10988 -0.01563,-1.00023 0.01563,-1.812927 0,-0.03126 0,-0.187544 0.01563,-0.156288 0.01563,-0.203174 0,-0.06252 0,-0.203173 0.01563,-0.156287 0.03126,-0.234431 0.01563,-0.07814 0.03126,-0.203173 0.01563,-0.140658 0.04689,-0.218802 0.03126,-0.07814 0.06251,-0.171916 0.03126,-0.109401 0.07814,-0.187544 0.06251,-0.07814 0.109401,-0.140658 0.296946,-0.281317 1.062755,-0.265689 0.78143,0.01563 1.09401,0.296946 0.0781,0.06252 0.12503,0.12503 0.0469,0.06251 0.0781,0.171915 0.0313,0.09377 0.0469,0.140659 0.0156,0.03126 0.0312,0.187544 0.0156,0.140659 0.0156,0.187545 0.34383,-0.35946 0.71892,-0.60952 0.12503,-0.07814 0.23443,-0.140658 0.10941,-0.06252 0.23443,-0.09377 0.12503,-0.04689 0.20318,-0.07814 0.0781,-0.03126 0.23443,-0.04689 0.15629,-0.01563 0.2188,-0.01563 0.0625,-0.01563 0.26569,-0.03126 0.20317,-0.03126 0.26569,-0.03126 0.3282,-0.03126 0.57826,0.07814 0.25006,0.09377 0.25006,0.343831 0.0625,0.96898 0,1.469099 -0.0625,0.500122 -0.20317,0.656402 -0.14066,0.15629 -0.42198,0.14066 -0.0313,0 -0.56263,-0.0781 -0.53138,-0.0781 -0.90647,-0.0469 -0.26569,0.0156 -0.50012,0.39072 -0.2188,0.35946 -0.25006,0.70329 -0.0312,0.28132 0.0625,0.75018 0.1094,0.46886 0.20317,0.85958 0.1094,0.37509 0.14066,0.79706 0.0313,0.42198 -0.14066,0.60952 z m 4.42293,-0.57826 q -0.90647,-1.14089 -0.67204,-2.92257 0.18755,-1.406581 0.79707,-2.609992 0.18754,-0.375089 1.07838,-0.265688 0.2188,0.03126 0.37509,0.07814 0.17191,0.03126 0.26568,0.12503 0.1094,0.07814 0.17192,0.140658 0.0781,0.06252 0.0938,0.203174 0.0313,0.125029 0.0313,0.203173 0.0156,0.07814 -0.0313,0.250059 -0.0313,0.171916 -0.0469,0.265688 -0.0156,0.07814 -0.0781,0.281317 -0.0625,0.203173 -0.0781,0.296946 -0.0938,0.343832 -0.12503,0.500122 -0.0313,0.14065 -0.0625,0.45323 -0.0312,0.31257 0.0156,0.53138 0.0625,0.62514 0.34383,0.92209 0.29695,0.29694 0.64078,0.28132 0.39072,-0.0156 0.62515,-0.46887 0.23443,-0.45323 0.18754,-1.26592 0,-0.17192 -0.0938,-0.906466 -0.0938,-0.750178 -0.0313,-1.203411 0.0469,-0.343832 0.34384,-0.547005 0.29694,-0.203173 0.57826,-0.250059 0.28132,-0.04689 0.48449,-0.03126 0.20317,0.03126 0.37509,0.218802 0.17191,0.171916 0.26569,0.390718 0.0938,0.203173 0.18754,0.578262 0.0938,0.375089 0.12503,0.578263 0.0469,0.203173 0.0938,0.578264 0.23443,1.53161 -0.0625,2.50059 -0.29695,0.95335 -1.2503,1.65664 -0.60952,0.46887 -1.54724,0.51575 -0.9221,0.0625 -1.76605,-0.23443 -0.82832,-0.31257 -1.23466,-0.84395 z m 10.75255,-3.51646 q 0,0 -0.12503,0.0625 -0.0938,0.0469 -0.12503,0.0625 -0.0156,0.0156 -0.0938,0.0625 -0.0781,0.0312 -0.1094,0.0625 -0.0156,0.0156 -0.0782,0.0625 -0.0625,0.0469 -0.0938,0.0938 -0.0156,0.0313 -0.0625,0.0938 -0.0313,0.0625 -0.0625,0.14066 l -0.0625,0.15629 q -0.0938,0.25006 -0.0469,0.78143 0.0469,0.51575 0.12503,1.00024 0.0938,0.48449 0.0938,0.93772 0.0156,0.45323 -0.14066,0.54701 -0.35946,0.26568 -0.95335,0.3282 -0.57826,0.0625 -0.84395,-0.2188 -0.29694,-0.37509 -0.45323,-0.9221 -0.15629,-0.56263 -0.31258,-1.4691 -0.2188,-1.07838 -0.2188,-2.234901 0,-1.156525 0.32821,-1.609757 0.17191,-0.25006 0.59389,-0.375089 0.4376,-0.140659 0.84395,-0.04689 0.59389,0.140658 0.95335,0.875207 0.0625,-0.06252 0.18754,-0.218802 0.14066,-0.156287 0.20318,-0.218802 0.0625,-0.07814 0.18754,-0.187544 0.12503,-0.109401 0.25006,-0.171916 0.12503,-0.06251 0.28132,-0.109401 0.59389,-0.187544 1.07838,-0.156287 0.48449,0.01563 1.07838,0.265688 0.95335,0.35946 1.15652,1.187782 0.48449,1.937958 -0.71892,5.219988 -0.15628,0.42198 -0.59389,0.57826 -0.42197,0.14066 -0.98461,-0.0312 -0.56263,-0.17192 -0.67203,-0.56264 -0.0938,-0.39072 0.29694,-1.56287 0.39072,-1.17215 0.35946,-1.73479 -0.0312,-0.4376 -0.42197,-0.67203 -0.37509,-0.23443 -0.84395,-0.0156 z m 6.03268,-5.407532 q 0.56264,-0.01563 0.98461,0.265688 0.42198,0.265688 0.50012,0.765807 0.0625,0.390717 -0.31257,0.640777 -0.37509,0.23443 -0.85958,0.23443 -0.48449,0.01563 -0.85958,-0.187544 -0.35946,-0.203173 -0.42198,-0.593891 -0.0625,-0.421975 0.23443,-0.765807 0.29695,-0.343832 0.73455,-0.35946 z m 1.75042,8.142562 q 0.0625,1.78167 -0.89084,1.92233 -1.82856,0.26569 -1.92233,-1.50036 -0.0469,-0.95335 -0.0313,-2.42245 0.0156,-1.469098 -0.0156,-2.453707 -0.0312,-0.687663 0.68767,-0.96898 0.73455,-0.281316 1.37532,0.109401 0.60952,0.390718 0.60952,1.234668 0,0.906466 0.0782,2.344308 0.0938,1.42221 0.1094,1.73479 z m 5.26687,-0.89084 q 0.15629,0.20317 0.39072,0.25006 0.25006,0.0469 0.50012,-0.14066 0.25006,-0.18754 0.48449,-0.40635 0.23443,-0.23443 0.40635,-0.25006 0.15628,-0.0156 0.29694,0.0469 0.15629,0.0469 0.23443,0.1094 0.0781,0.0469 0.25006,0.18755 0.85958,0.62514 0.26569,1.54724 -0.48449,0.75018 -1.29718,1.12527 -0.8127,0.35946 -1.53162,0.29694 -2.09424,-0.17191 -2.51622,-2.03173 -0.0781,-0.29695 -0.1094,-1.42221 -0.0156,-1.12527 0.0313,-1.641019 -0.34383,0.06252 -0.68767,0.04689 -0.46886,-0.04689 -0.75017,-0.328203 -0.26569,-0.281317 -0.28132,-0.60952 -0.0156,-0.343832 0.18754,-0.640777 0.21881,-0.312574 0.60952,-0.390718 0.48449,-0.09377 0.95335,-0.109401 0,0 0,-0.09377 v -0.171916 -0.203173 q 0,-0.140659 0.0156,-0.25006 0.0156,-0.125029 0.0469,-0.281316 0.0313,-0.156287 0.0781,-0.296946 0.0469,-0.140658 0.12503,-0.281317 0.0781,-0.156287 0.17192,-0.281316 0.29694,-0.406347 0.92209,-0.406347 0.65641,0 0.98461,0.515748 0.0938,0.140658 0.0781,0.593891 -0.0156,0.281316 -0.0781,0.562633 -0.0625,0.281317 -0.0625,0.312574 -0.0156,0.109401 -0.0156,0.25006 1.01586,-0.09377 1.54724,0.06251 0.46886,0.140658 0.57826,0.578262 0.15629,0.531376 -0.12503,0.953351 -0.2188,0.328203 -0.89083,0.375089 -0.50012,0.06252 -1.09401,0.01563 0.0156,0.265688 0,0.593892 -0.0156,0.31257 0,0.67203 0.0312,0.34384 0.0781,0.64078 0.0625,0.28132 0.20317,0.50012 z"
       id="text1-4-9-4"
       transform="rotate(-11.483551)"
       aria-label="runit&#10;" />
  </g>
  <g
     inkscape:groupmode="layer"
     id="layer4"
     inkscape:label="Layer 4"
     transform="translate(-53.673828,-40.202023)">
    <path
       style="font-size:15.4834px;font-family:'Wonderful Fonty Cure!';-inkscape-font-specification:'Wonderful Fonty Cure!';text-align:center;text-anchor:middle;fill:#478061;stroke:#ffffff;stroke-width:0"
       d="m 126.17521,29.92472 q -0.42338,0.287289 -0.92235,0.241928 -0.49898,-0.04536 -0.74091,-0.438495 -0.49898,-0.801387 -0.71066,-2.736812 -0.21169,-1.950545 0.18144,-2.97874 0.19657,-0.438495 0.42338,-0.665302 0.24193,-0.226808 0.63506,-0.257049 0.52922,-0.01512 0.95259,0.211687 0.4385,0.211687 0.40826,0.650182 -0.0151,0.241928 -0.0151,0.529218 0.18145,-0.438495 0.5141,-0.846749 0.55946,-0.710663 1.49693,-0.771146 0.6653,-0.04536 1.23988,0.317531 0.5897,0.362892 0.92235,0.952592 0.12097,-0.211687 0.19657,-0.31753 0.0756,-0.120965 0.22681,-0.27217 0.1512,-0.151205 0.34777,-0.257048 0.52922,-0.272169 0.99795,-0.332651 0.46874,-0.06048 1.07356,0.06048 0.96771,0.196566 1.30036,0.937471 0.83163,1.844702 0.22681,5.398021 -0.0454,0.196567 -0.18144,0.378013 -0.12097,0.181446 -0.28729,0.272169 -0.33266,0.211687 -0.92236,0.151205 -0.58969,-0.06048 -0.75602,-0.423374 -0.15121,-0.362892 0.0151,-1.693497 0.16633,-1.345725 0.0302,-1.859822 -0.10584,-0.423374 -0.49898,-0.57458 -0.37801,-0.151205 -0.8165,0.136085 -0.39314,0.28729 -0.48386,0.423374 0.10584,0.816508 0.10584,1.542292 0.0151,0.710664 -0.12096,1.375966 -0.13608,0.665303 -0.43849,0.89211 -0.60483,0.423375 -1.5423,0 -0.36289,-0.166325 -0.46873,-0.680423 -0.10585,-0.514097 -0.0454,-1.103797 0.0756,-0.589699 0.0907,-1.20964 0.0151,-0.619941 -0.0756,-0.982833 -0.12097,-0.332651 -0.49898,-0.423375 -0.36289,-0.105843 -0.68042,0.06048 -0.42338,0.211688 -0.81651,0.952593 0.0756,0.725784 0.0907,1.134038 0.0302,0.393133 0.0151,0.922351 0,0.514097 -0.12096,0.831628 -0.12096,0.30241 -0.34777,0.453615 z m 10.82628,-0.952592 q -0.87699,-1.103797 -0.65018,-2.827535 0.18145,-1.360846 0.77115,-2.525125 0.18144,-0.362892 1.04331,-0.257049 0.21169,0.03024 0.36289,0.0756 0.16633,0.03024 0.25705,0.120964 0.10585,0.0756 0.16633,0.136084 0.0756,0.06048 0.0907,0.196567 0.0302,0.120964 0.0302,0.196567 0.0151,0.0756 -0.0302,0.241928 -0.0302,0.166325 -0.0454,0.257048 -0.0151,0.0756 -0.0756,0.27217 -0.0605,0.196566 -0.0756,0.287289 -0.0907,0.332651 -0.12096,0.483856 -0.0302,0.136085 -0.0605,0.438495 -0.0302,0.30241 0.0151,0.514098 0.0605,0.60482 0.33265,0.892109 0.28729,0.28729 0.61994,0.27217 0.37801,-0.01512 0.60482,-0.453616 0.22681,-0.438494 0.18145,-1.224761 0,-0.166325 -0.0907,-0.876989 -0.0907,-0.725785 -0.0302,-1.164279 0.0454,-0.332652 0.33265,-0.529218 0.28729,-0.196567 0.55946,-0.241928 0.27217,-0.04536 0.46874,-0.03024 0.19656,0.03024 0.36289,0.211687 0.16633,0.166325 0.25705,0.378013 0.0907,0.196566 0.18145,0.559458 0.0907,0.362893 0.12096,0.559459 0.0454,0.196567 0.0907,0.559459 0.22681,1.48181 -0.0605,2.419281 -0.28729,0.922351 -1.20964,1.602774 -0.5897,0.453615 -1.49693,0.498977 -0.89211,0.06048 -1.70862,-0.226808 -0.80139,-0.30241 -1.19452,-0.816507 z m 12.3837,-3.613802 q -0.0605,0.120964 -0.24193,0.0756 -0.18145,-0.06048 -0.33265,-0.166326 -0.15121,-0.120964 -0.40825,-0.241928 -0.24193,-0.120964 -0.4385,-0.136084 -0.18145,-0.01512 -0.33265,0 -0.13608,0 -0.24193,0.09072 -0.0907,0.0756 -0.1512,0.241928 -0.10585,0.287289 0.12096,0.498977 0.22681,0.211687 0.54434,0.30241 0.75602,0.211687 1.19452,0.619941 0.43849,0.408253 0.49898,1.058435 0.0756,0.635061 -0.34778,1.466689 -0.25704,0.514098 -0.68042,0.771146 -0.40825,0.241928 -0.99795,0.272169 -1.16428,0.06048 -1.95055,-0.09072 -0.77114,-0.136084 -1.58765,-0.680422 -0.18145,-0.120965 -0.18145,-0.408254 0,-0.28729 0.15121,-0.574579 0.16632,-0.302411 0.37801,-0.559459 0.22681,-0.272169 0.46874,-0.347772 0.25704,-0.09072 0.45361,0.03024 0.0756,0.04536 0.24193,0.196567 0.16633,0.136084 0.25705,0.211687 0.10584,0.06048 0.30241,0.151205 0.19657,0.0756 0.42337,0.105843 0.4385,0.0756 0.72579,-0.01512 0.28729,-0.09072 0.37801,-0.241928 0.0907,-0.151205 0,-0.28729 -0.0907,-0.151205 -0.31753,-0.241928 -0.21169,-0.09072 -0.5897,-0.226808 -0.37801,-0.136084 -0.72579,-0.378012 -1.08867,-0.740905 -1.08867,-1.753979 0,-0.393134 0.10584,-0.756026 0.12097,-0.378012 0.45362,-0.740905 0.34777,-0.378012 0.87699,-0.514097 0.68042,-0.151205 1.69349,-0.06048 1.0282,0.0756 1.66326,0.332651 0.25705,0.120964 0.21169,0.544339 -0.0302,0.408253 -0.21169,0.831628 -0.16633,0.423374 -0.31753,0.61994 z m 2.28319,-4.657116 q 0.0756,-0.362892 0.5141,-0.468736 0.45362,-0.105843 0.95259,0 0.5141,0.105844 0.92235,0.378013 0.40826,0.272169 0.40826,0.559459 0,0.967712 -0.0756,2.041268 -0.0605,1.058436 -0.10585,1.617895 -0.0454,0.544338 -0.19656,2.011027 -0.21169,1.874943 -0.61994,2.615848 -0.60483,1.134038 -1.85983,0.574579 -0.37801,-0.166325 -0.52922,-0.378012 -0.13608,-0.226808 -0.1512,-0.635062 0,-0.423374 0.0302,-1.118917 0.0756,-1.557413 0.12096,-2.434402 0.0605,-0.89211 0.21169,-2.177353 0.15121,-1.300364 0.37801,-2.585607 z"
       id="text13"
       transform="rotate(11.530069)"
       aria-label="musl" />
    <path
       style="font-size:15.4834px;font-family:'Wonderful Fonty Cure!';-inkscape-font-specification:'Wonderful Fonty Cure!';text-align:center;text-anchor:middle;fill:#478061;stroke:#ffffff;stroke-width:0.58825"
       d="m 125.36869,28.98117 q -0.42338,0.287289 -0.92235,0.241928 -0.49898,-0.04536 -0.74091,-0.438495 -0.49897,-0.801387 -0.71066,-2.736812 -0.21169,-1.950545 0.18145,-2.97874 0.19656,-0.438495 0.42337,-0.665302 0.24193,-0.226808 0.63506,-0.257049 0.52922,-0.01512 0.95259,0.211687 0.4385,0.211687 0.40826,0.650182 -0.0151,0.241928 -0.0151,0.529218 0.18144,-0.438495 0.51409,-0.846749 0.55946,-0.710664 1.49693,-0.771146 0.66531,-0.04536 1.23989,0.317531 0.5897,0.362892 0.92235,0.952592 0.12096,-0.211687 0.19656,-0.317531 0.0756,-0.120964 0.22681,-0.272169 0.15121,-0.151205 0.34777,-0.257048 0.52922,-0.27217 0.99796,-0.332652 0.46873,-0.06048 1.07355,0.06048 0.96771,0.196567 1.30037,0.937472 0.83162,1.844702 0.2268,5.398021 -0.0454,0.196567 -0.18144,0.378013 -0.12097,0.181446 -0.28729,0.272169 -0.33265,0.211687 -0.92235,0.151205 -0.5897,-0.06048 -0.75603,-0.423374 -0.1512,-0.362892 0.0151,-1.693497 0.16633,-1.345725 0.0302,-1.859822 -0.10584,-0.423375 -0.49897,-0.57458 -0.37802,-0.151205 -0.81651,0.136085 -0.39313,0.28729 -0.48386,0.423374 0.10585,0.816508 0.10585,1.542292 0.0151,0.710664 -0.12097,1.375966 -0.13608,0.665303 -0.43849,0.89211 -0.60482,0.423374 -1.5423,0 -0.36289,-0.166325 -0.46873,-0.680423 -0.10584,-0.514097 -0.0454,-1.103797 0.0756,-0.5897 0.0907,-1.20964 0.0151,-0.619941 -0.0756,-0.982833 -0.12097,-0.332652 -0.49898,-0.423375 -0.36289,-0.105843 -0.68042,0.06048 -0.42338,0.211687 -0.81651,0.952592 0.0756,0.725785 0.0907,1.134039 0.0302,0.393133 0.0151,0.922351 0,0.514097 -0.12096,0.831627 -0.12096,0.302411 -0.34777,0.453616 z m 10.82628,-0.952592 q -0.87699,-1.103797 -0.65018,-2.827535 0.18145,-1.360846 0.77115,-2.525125 0.18144,-0.362892 1.04331,-0.257049 0.21169,0.03024 0.36289,0.0756 0.16633,0.03024 0.25705,0.120964 0.10585,0.0756 0.16633,0.136084 0.0756,0.06048 0.0907,0.196567 0.0302,0.120964 0.0302,0.196567 0.0151,0.0756 -0.0302,0.241928 -0.0302,0.166325 -0.0454,0.257048 -0.0151,0.0756 -0.0756,0.272169 -0.0605,0.196567 -0.0756,0.28729 -0.0907,0.332651 -0.12097,0.483856 -0.0302,0.136085 -0.0605,0.438495 -0.0302,0.30241 0.0151,0.514097 0.0605,0.604821 0.33265,0.89211 0.28729,0.28729 0.61994,0.27217 0.37801,-0.01512 0.60482,-0.453616 0.22681,-0.438494 0.18145,-1.224761 0,-0.166325 -0.0907,-0.876989 -0.0907,-0.725785 -0.0302,-1.164279 0.0454,-0.332652 0.33266,-0.529218 0.28728,-0.196567 0.55945,-0.241928 0.27217,-0.04536 0.46874,-0.03024 0.19657,0.03024 0.36289,0.211687 0.16633,0.166325 0.25705,0.378012 0.0907,0.196567 0.18145,0.559459 0.0907,0.362892 0.12096,0.559459 0.0454,0.196567 0.0907,0.559459 0.22681,1.48181 -0.0605,2.419281 -0.28729,0.922351 -1.20964,1.602774 -0.5897,0.453615 -1.49693,0.498977 -0.89211,0.06048 -1.70862,-0.226808 -0.80138,-0.30241 -1.19452,-0.816507 z m 12.3837,-3.613802 q -0.0605,0.120964 -0.24193,0.0756 -0.18144,-0.06048 -0.33265,-0.166326 -0.1512,-0.120964 -0.40825,-0.241928 -0.24193,-0.120964 -0.4385,-0.136085 -0.18144,-0.01512 -0.33265,0 -0.13608,0 -0.24193,0.09072 -0.0907,0.0756 -0.1512,0.241928 -0.10585,0.287289 0.12096,0.498976 0.22681,0.211688 0.54434,0.302411 0.75603,0.211687 1.19452,0.61994 0.4385,0.408254 0.49898,1.058436 0.0756,0.635061 -0.34777,1.466689 -0.25705,0.514098 -0.68043,0.771146 -0.40825,0.241928 -0.99795,0.272169 -1.16428,0.06048 -1.95055,-0.09072 -0.77114,-0.136084 -1.58765,-0.680423 -0.18145,-0.120964 -0.18145,-0.408253 0,-0.28729 0.15121,-0.57458 0.16632,-0.30241 0.37801,-0.559458 0.22681,-0.27217 0.46874,-0.347772 0.25705,-0.09072 0.45361,0.03024 0.0756,0.04536 0.24193,0.196567 0.16633,0.136084 0.25705,0.211687 0.10584,0.06048 0.30241,0.151205 0.19657,0.0756 0.42337,0.105843 0.4385,0.0756 0.72579,-0.01512 0.28729,-0.09072 0.37801,-0.241928 0.0907,-0.151205 0,-0.28729 -0.0907,-0.151205 -0.31753,-0.241928 -0.21169,-0.09072 -0.5897,-0.226808 -0.37801,-0.136084 -0.72578,-0.378012 -1.08868,-0.740905 -1.08868,-1.753979 0,-0.393134 0.10584,-0.756026 0.12097,-0.378013 0.45362,-0.740905 0.34777,-0.378012 0.87699,-0.514097 0.68042,-0.151205 1.6935,-0.06048 1.02819,0.0756 1.66325,0.332651 0.25705,0.120964 0.21169,0.544338 -0.0302,0.408254 -0.21169,0.831628 -0.16632,0.423375 -0.31753,0.619941 z m 2.2832,-4.657116 q 0.0756,-0.362892 0.51409,-0.468736 0.45362,-0.105844 0.9526,0 0.51409,0.105844 0.92235,0.378013 0.40825,0.272169 0.40825,0.559458 0,0.967713 -0.0756,2.041269 -0.0605,1.058436 -0.10585,1.617894 -0.0454,0.544339 -0.19656,2.011028 -0.21169,1.874943 -0.61994,2.615848 -0.60482,1.134038 -1.85983,0.574579 -0.37801,-0.166325 -0.52921,-0.378012 -0.13609,-0.226808 -0.15121,-0.635062 0,-0.423374 0.0302,-1.118917 0.0756,-1.557413 0.12097,-2.434402 0.0605,-0.89211 0.21168,-2.177353 0.15121,-1.300364 0.37802,-2.585607 z"
       id="text4-4"
       transform="rotate(11.530069)"
       aria-label="musl" />
  </g>
</svg>
